<mxfile host="app.diagrams.net" agent="Mozilla/5.0 (X11; Linux x86_64) AppleWebKit/537.36 (KHTML, like Gecko) Chrome/135.0.0.0 Safari/537.36" version="26.2.14">
  <diagram name="Page-1" id="dV4gOR_IBtZmmg_PkJwF">
    <mxGraphModel dx="1426" dy="758" grid="1" gridSize="10" guides="1" tooltips="1" connect="1" arrows="1" fold="1" page="1" pageScale="1" pageWidth="827" pageHeight="1169" math="0" shadow="0">
      <root>
        <mxCell id="0" />
        <mxCell id="1" parent="0" />
        <mxCell id="Sd7unRfTBgieK_2XC20D-6" style="edgeStyle=orthogonalEdgeStyle;rounded=0;orthogonalLoop=1;jettySize=auto;html=1;entryX=0;entryY=0.5;entryDx=0;entryDy=0;" edge="1" parent="1" source="Sd7unRfTBgieK_2XC20D-1" target="Sd7unRfTBgieK_2XC20D-2">
          <mxGeometry relative="1" as="geometry" />
        </mxCell>
        <mxCell id="Sd7unRfTBgieK_2XC20D-1" value="&lt;b&gt;GET&lt;/b&gt;&lt;div&gt;&lt;i&gt;https://api.ejemplo.com/products/1&lt;/i&gt;&lt;/div&gt;" style="rounded=0;whiteSpace=wrap;html=1;" vertex="1" parent="1">
          <mxGeometry x="140" y="170" width="200" height="60" as="geometry" />
        </mxCell>
        <mxCell id="Sd7unRfTBgieK_2XC20D-9" value="" style="group" vertex="1" connectable="0" parent="1">
          <mxGeometry x="380" y="140" width="280" height="120" as="geometry" />
        </mxCell>
        <mxCell id="Sd7unRfTBgieK_2XC20D-2" value="&lt;font data-font-src=&quot;https://fonts.googleapis.com/css?family=Cascadia+Code&quot; face=&quot;Cascadia Code&quot;&gt;{&lt;br&gt;&amp;nbsp; &quot;id&quot;: &lt;font style=&quot;color: rgb(255, 102, 102);&quot;&gt;1&lt;/font&gt;,&lt;br&gt;&amp;nbsp; &quot;name&quot;: &lt;font style=&quot;color: rgb(255, 102, 102);&quot;&gt;&quot;Amoladora Makita GA503&quot;&lt;/font&gt;,&lt;br&gt;&amp;nbsp; &quot;sku&quot;: &lt;font style=&quot;color: rgb(255, 102, 102);&quot;&gt;&quot;3701204698396&quot;&lt;/font&gt;,&lt;br&gt;&amp;nbsp; &quot;price&quot;: &lt;font style=&quot;color: rgb(255, 102, 102);&quot;&gt;&quot;99.50&quot;&lt;/font&gt;,&lt;br&gt;&amp;nbsp; &lt;/font&gt;&lt;span style=&quot;font-family: &amp;quot;Cascadia Code&amp;quot;; background-color: transparent; color: light-dark(rgb(0, 0, 0), rgb(255, 255, 255));&quot;&gt;&quot;stock&quot;: &lt;/span&gt;&lt;span style=&quot;font-family: &amp;quot;Cascadia Code&amp;quot;; background-color: transparent;&quot;&gt;&lt;font style=&quot;color: light-dark(rgb(255, 102, 102), rgb(255, 255, 255));&quot;&gt;12&lt;/font&gt;&lt;/span&gt;&lt;div&gt;&lt;font data-font-src=&quot;https://fonts.googleapis.com/css?family=Cascadia+Code&quot; face=&quot;Cascadia Code&quot;&gt;}&lt;/font&gt;&lt;/div&gt;" style="rounded=0;whiteSpace=wrap;html=1;align=left;spacingLeft=10;" vertex="1" parent="Sd7unRfTBgieK_2XC20D-9">
          <mxGeometry width="280" height="120" as="geometry" />
        </mxCell>
        <mxCell id="Sd7unRfTBgieK_2XC20D-7" value="&lt;b&gt;JSON&lt;/b&gt;" style="text;html=1;align=center;verticalAlign=middle;whiteSpace=wrap;rounded=0;" vertex="1" parent="Sd7unRfTBgieK_2XC20D-9">
          <mxGeometry x="220" y="90" width="60" height="30" as="geometry" />
        </mxCell>
        <mxCell id="Sd7unRfTBgieK_2XC20D-11" value="&lt;b&gt;PeticiÃ³n (&lt;i&gt;frontend&lt;/i&gt;)&lt;/b&gt;" style="text;html=1;align=left;verticalAlign=middle;whiteSpace=wrap;rounded=0;" vertex="1" parent="1">
          <mxGeometry x="140" y="146" width="110" height="30" as="geometry" />
        </mxCell>
        <mxCell id="Sd7unRfTBgieK_2XC20D-12" value="&lt;b&gt;Respuesta (&lt;i&gt;backend&lt;/i&gt;)&lt;/b&gt;" style="text;html=1;align=left;verticalAlign=middle;whiteSpace=wrap;rounded=0;" vertex="1" parent="1">
          <mxGeometry x="380" y="116" width="150" height="30" as="geometry" />
        </mxCell>
      </root>
    </mxGraphModel>
  </diagram>
</mxfile>
